<svg width="100%" viewBox="0 0 680 1080">
<defs>
<marker id="arrow" viewBox="0 0 10 10" refX="8" refY="5" markerWidth="6" markerHeight="6" orient="auto-start-reverse">
<path d="M2 1L8 5L2 9" fill="none" stroke="context-stroke" stroke-width="1.5" stroke-linecap="round" stroke-linejoin="round"/>
</marker>
<marker id="arrow-blue" viewBox="0 0 10 10" refX="8" refY="5" markerWidth="5" markerHeight="5" orient="auto-start-reverse">
<path d="M2 1L8 5L2 9" fill="none" stroke="#378ADD" stroke-width="1.5" stroke-linecap="round" stroke-linejoin="round"/>
</marker>
<marker id="arrow-teal" viewBox="0 0 10 10" refX="8" refY="5" markerWidth="5" markerHeight="5" orient="auto-start-reverse">
<path d="M2 1L8 5L2 9" fill="none" stroke="#1D9E75" stroke-width="1.5" stroke-linecap="round" stroke-linejoin="round"/>
</marker>
<marker id="arrow-amber" viewBox="0 0 10 10" refX="8" refY="5" markerWidth="5" markerHeight="5" orient="auto-start-reverse">
<path d="M2 1L8 5L2 9" fill="none" stroke="#BA7517" stroke-width="1.5" stroke-linecap="round" stroke-linejoin="round"/>
</marker>
</defs>

<!-- ============ TITLE ============ -->
<text class="th" x="340" y="26" text-anchor="middle" font-size="15px">AI Codebase Knowledge Builder — Full System Architecture</text>
<text class="ts" x="340" y="44" text-anchor="middle">Deployed via Docker Compose</text>

<!-- ============ DOCKER COMPOSE BOUNDARY ============ -->
<rect x="10" y="54" width="660" height="900" rx="14" fill="none" stroke="#378ADD" stroke-width="1.5" stroke-dasharray="8 4"/>
<text class="ts" x="24" y="72" fill="#378ADD" font-weight="500">docker-compose network</text>

<!-- ============ LEGEND ============ -->
<rect x="490" y="57" width="174" height="80" rx="8" fill="none" stroke="var(--color-border-secondary)" stroke-width="0.5"/>
<line x1="502" y1="76" x2="526" y2="76" stroke="#378ADD" stroke-width="1.5" stroke-dasharray="5 3"/>
<text class="ts" x="532" y="80">Docker network</text>
<line x1="502" y1="94" x2="526" y2="94" stroke="#1D9E75" stroke-width="1.5" marker-end="url(#arrow-teal)"/>
<text class="ts" x="532" y="98">Data / API flow</text>
<line x1="502" y1="112" x2="526" y2="112" stroke="#BA7517" stroke-width="1.5" marker-end="url(#arrow-amber)"/>
<text class="ts" x="532" y="116">Metrics scrape</text>
<line x1="502" y1="128" x2="526" y2="128" stroke="#7F77DD" stroke-width="1.5" marker-end="url(#arrow)"/>
<text class="ts" x="532" y="132">External API call</text>

<!-- ===== ROW 1: INPUTS ===== -->
<text class="ts" x="16" y="94" font-weight="500" fill="#888780">INPUTS</text>

<g class="c-gray">
<rect x="30" y="100" width="130" height="54" rx="8" stroke-width="0.5"/>
<text class="th" x="95" y="123" text-anchor="middle">GitHub Repo</text>
<text class="ts" x="95" y="141" text-anchor="middle">remote URL</text>
</g>

<g class="c-gray">
<rect x="178" y="100" width="130" height="54" rx="8" stroke-width="0.5"/>
<text class="th" x="243" y="123" text-anchor="middle">Local Directory</text>
<text class="ts" x="243" y="141" text-anchor="middle">filesystem path</text>
</g>

<g class="c-gray">
<rect x="326" y="100" width="130" height="54" rx="8" stroke-width="0.5"/>
<text class="th" x="391" y="123" text-anchor="middle">Web Browser</text>
<text class="ts" x="391" y="141" text-anchor="middle">User UI :5000</text>
</g>

<!-- ===== FLASK APP CONTAINER ===== -->
<g class="c-blue">
<rect x="20" y="184" width="450" height="116" rx="10" stroke-width="0.5"/>
<text class="th" x="245" y="204" text-anchor="middle">Flask App Container  (port 5000)</text>
</g>

<!-- Flask route boxes inside -->
<g class="c-purple">
<rect x="36" y="214" width="110" height="36" rx="6" stroke-width="0.5"/>
<text class="th" x="91" y="229" text-anchor="middle">app.py</text>
<text class="ts" x="91" y="244" text-anchor="middle">Flask routes</text>
</g>

<g class="c-teal">
<rect x="158" y="214" width="110" height="36" rx="6" stroke-width="0.5"/>
<text class="th" x="213" y="229" text-anchor="middle">flow.py</text>
<text class="ts" x="213" y="244" text-anchor="middle">Pipeline factory</text>
</g>

<g class="c-coral">
<rect x="280" y="214" width="110" height="36" rx="6" stroke-width="0.5"/>
<text class="th" x="335" y="229" text-anchor="middle">nodes.py</text>
<text class="ts" x="335" y="244" text-anchor="middle">6 pipeline nodes</text>
</g>

<g class="c-amber">
<rect x="402" y="214" width="56" height="36" rx="6" stroke-width="0.5"/>
<text class="th" x="430" y="229" text-anchor="middle">/metrics</text>
<text class="ts" x="430" y="244" text-anchor="middle">endpoint</text>
</g>

<!-- Sub row: supporting modules -->
<g class="c-gray">
<rect x="36" y="262" width="100" height="28" rx="6" stroke-width="0.5"/>
<text class="ts" x="86" y="280" text-anchor="middle">call_llm.py</text>
</g>
<g class="c-gray">
<rect x="148" y="262" width="100" height="28" rx="6" stroke-width="0.5"/>
<text class="ts" x="198" y="280" text-anchor="middle">metrics.py</text>
</g>
<g class="c-gray">
<rect x="260" y="262" width="130" height="28" rx="6" stroke-width="0.5"/>
<text class="ts" x="325" y="280" text-anchor="middle">performance_tracker.py</text>
</g>
<g class="c-gray">
<rect x="402" y="262" width="56" height="28" rx="6" stroke-width="0.5"/>
<text class="ts" x="430" y="280" text-anchor="middle">__init__.py</text>
</g>

<!-- Arrows: inputs → flask -->
<line x1="95" y1="154" x2="130" y2="184" stroke="#1D9E75" stroke-width="1.2" marker-end="url(#arrow-teal)" fill="none"/>
<line x1="243" y1="154" x2="243" y2="184" stroke="#1D9E75" stroke-width="1.2" marker-end="url(#arrow-teal)" fill="none"/>
<line x1="391" y1="154" x2="320" y2="184" stroke="#1D9E75" stroke-width="1.2" marker-end="url(#arrow-teal)" fill="none"/>

<!-- ===== POCKETFLOW PIPELINE ===== -->
<text class="ts" x="16" y="328" font-weight="500" fill="#888780">POCKETFLOW PIPELINE  (orchestrated by __init__.py)</text>
<rect x="20" y="334" width="636" height="160" rx="10" fill="none" stroke="#1D9E75" stroke-width="1" stroke-dasharray="5 3"/>

<!-- Node 1 -->
<g class="c-teal">
<rect x="36" y="350" width="88" height="48" rx="6" stroke-width="0.5"/>
<text class="th" x="80" y="369" text-anchor="middle" font-size="11px">FetchRepo</text>
<text class="ts" x="80" y="384" text-anchor="middle">crawl files</text>
</g>
<line x1="124" y1="374" x2="138" y2="374" stroke="#1D9E75" stroke-width="1.2" marker-end="url(#arrow-teal)" fill="none"/>

<!-- Node 2 -->
<g class="c-teal">
<rect x="140" y="350" width="88" height="48" rx="6" stroke-width="0.5"/>
<text class="th" x="184" y="366" text-anchor="middle" font-size="11px">Identify</text>
<text class="th" x="184" y="378" text-anchor="middle" font-size="11px">Abstractions</text>
<text class="ts" x="184" y="392" text-anchor="middle">LLM call</text>
</g>
<line x1="228" y1="374" x2="242" y2="374" stroke="#1D9E75" stroke-width="1.2" marker-end="url(#arrow-teal)" fill="none"/>

<!-- Node 3 -->
<g class="c-teal">
<rect x="244" y="350" width="88" height="48" rx="6" stroke-width="0.5"/>
<text class="th" x="288" y="366" text-anchor="middle" font-size="11px">Analyze</text>
<text class="th" x="288" y="378" text-anchor="middle" font-size="11px">Relationships</text>
<text class="ts" x="288" y="392" text-anchor="middle">LLM call</text>
</g>
<line x1="332" y1="374" x2="346" y2="374" stroke="#1D9E75" stroke-width="1.2" marker-end="url(#arrow-teal)" fill="none"/>

<!-- Node 4 -->
<g class="c-teal">
<rect x="348" y="350" width="88" height="48" rx="6" stroke-width="0.5"/>
<text class="th" x="392" y="366" text-anchor="middle" font-size="11px">Order</text>
<text class="th" x="392" y="378" text-anchor="middle" font-size="11px">Chapters</text>
<text class="ts" x="392" y="392" text-anchor="middle">LLM call</text>
</g>
<line x1="436" y1="374" x2="450" y2="374" stroke="#1D9E75" stroke-width="1.2" marker-end="url(#arrow-teal)" fill="none"/>

<!-- Node 5 -->
<g class="c-teal">
<rect x="452" y="350" width="88" height="48" rx="6" stroke-width="0.5"/>
<text class="th" x="496" y="366" text-anchor="middle" font-size="11px">Write</text>
<text class="th" x="496" y="378" text-anchor="middle" font-size="11px">Chapters</text>
<text class="ts" x="496" y="392" text-anchor="middle">BatchNode</text>
</g>
<line x1="540" y1="374" x2="554" y2="374" stroke="#1D9E75" stroke-width="1.2" marker-end="url(#arrow-teal)" fill="none"/>

<!-- Node 6 -->
<g class="c-teal">
<rect x="556" y="350" width="88" height="48" rx="6" stroke-width="0.5"/>
<text class="th" x="600" y="366" text-anchor="middle" font-size="11px">Combine</text>
<text class="th" x="600" y="378" text-anchor="middle" font-size="11px">Tutorial</text>
<text class="ts" x="600" y="392" text-anchor="middle">write .md</text>
</g>

<!-- Retry label -->
<text class="ts" x="338" y="420" text-anchor="middle" fill="#1D9E75">↻ max_retries=5, wait=20s per LLM node</text>

<!-- Shared state label -->
<rect x="36" y="432" width="610" height="50" rx="6" fill="none" stroke="var(--color-border-tertiary)" stroke-width="0.5" stroke-dasharray="3 3"/>
<text class="ts" x="341" y="449" text-anchor="middle" font-weight="500">Shared State Dictionary  (passed node-to-node)</text>
<text class="ts" x="341" y="466" text-anchor="middle">files → abstractions → relationships → chapter_order → chapters → final_output_dir</text>

<!-- Flask to pipeline arrow -->
<line x1="213" y1="300" x2="213" y2="334" stroke="#1D9E75" stroke-width="1.2" marker-end="url(#arrow-teal)" fill="none"/>

<!-- ===== EXTERNAL SERVICES ROW ===== -->
<text class="ts" x="16" y="512" font-weight="500" fill="#888780">EXTERNAL SERVICE</text>

<g class="c-purple">
<rect x="20" y="518" width="210" height="60" rx="10" stroke-width="0.5"/>
<text class="th" x="125" y="540" text-anchor="middle">Google Gemini API</text>
<text class="ts" x="125" y="557" text-anchor="middle">gemini-3-flash-preview</text>
</g>

<!-- JSON cache -->
<g class="c-amber">
<rect x="250" y="518" width="150" height="60" rx="10" stroke-width="0.5"/>
<text class="th" x="325" y="540" text-anchor="middle">llm_cache.json</text>
<text class="ts" x="325" y="557" text-anchor="middle">Prompt → Response</text>
</g>

<!-- Log file -->
<g class="c-gray">
<rect x="420" y="518" width="140" height="60" rx="10" stroke-width="0.5"/>
<text class="th" x="490" y="540" text-anchor="middle">logs/</text>
<text class="ts" x="490" y="557" text-anchor="middle">llm_calls_DATE.log</text>
</g>

<!-- call_llm.py → Gemini (external, goes outside docker boundary concept) -->
<path d="M86 300 L86 518" stroke="#7F77DD" stroke-width="1.2" stroke-dasharray="4 3" fill="none" marker-end="url(#arrow)"/>
<text class="ts" x="60" y="418" text-anchor="middle" fill="#7F77DD" transform="rotate(-90,60,418)">Gemini API call</text>

<!-- call_llm.py → cache check -->
<line x1="198" y1="300" x2="325" y2="518" stroke="#BA7517" stroke-width="1" stroke-dasharray="3 3" fill="none" marker-end="url(#arrow-amber)"/>

<!-- call_llm.py → log -->
<line x1="198" y1="300" x2="490" y2="518" stroke="#888780" stroke-width="0.8" stroke-dasharray="3 3" fill="none" marker-end="url(#arrow)"/>

<!-- ===== OUTPUT ===== -->
<g class="c-green">
<rect x="20" y="604" width="210" height="54" rx="10" stroke-width="0.5"/>
<text class="th" x="125" y="624" text-anchor="middle">output/ directory</text>
<text class="ts" x="125" y="641" text-anchor="middle">index.md + chapter .md files</text>
</g>

<!-- CombineTutorial → output -->
<path d="M600 398 L600 580 L125 580 L125 604" stroke="#1D9E75" stroke-width="1.2" fill="none" marker-end="url(#arrow-teal)"/>

<!-- ===== MONITORING STACK ===== -->
<text class="ts" x="16" y="686" font-weight="500" fill="#888780">MONITORING STACK (Docker containers)</text>

<!-- Prometheus container -->
<g class="c-amber">
<rect x="20" y="692" width="200" height="90" rx="10" stroke-width="0.5"/>
<text class="th" x="120" y="714" text-anchor="middle">Prometheus</text>
<text class="ts" x="120" y="731" text-anchor="middle">Container  :9090</text>
<text class="ts" x="120" y="748" text-anchor="middle">scrapes /metrics every 15s</text>
<text class="ts" x="120" y="764" text-anchor="middle">stores time-series data</text>
</g>

<!-- Grafana container -->
<g class="c-coral">
<rect x="240" y="692" width="200" height="90" rx="10" stroke-width="0.5"/>
<text class="th" x="340" y="714" text-anchor="middle">Grafana</text>
<text class="ts" x="340" y="731" text-anchor="middle">Container  :3000</text>
<text class="ts" x="340" y="748" text-anchor="middle">6 dashboards (JSON)</text>
<text class="ts" x="340" y="764" text-anchor="middle">reads from Prometheus</text>
</g>

<!-- Prometheus → Grafana -->
<line x1="220" y1="737" x2="240" y2="737" stroke="#BA7517" stroke-width="1.2" marker-end="url(#arrow-amber)" fill="none"/>

<!-- Flask /metrics → Prometheus scrape -->
<path d="M430 270 L580 270 L580 692 L220 692 L220 737" stroke="#BA7517" stroke-width="1.2" stroke-dasharray="5 3" fill="none" marker-end="url(#arrow-amber)"/>
<text class="ts" x="590" y="490" text-anchor="start" fill="#BA7517">scrape</text>

<!-- ===== 6 GRAFANA DASHBOARDS ===== -->
<text class="ts" x="16" y="806" font-weight="500" fill="#888780">GRAFANA DASHBOARDS</text>

<g class="c-gray"><rect x="20" y="812" width="96" height="36" rx="6" stroke-width="0.5"/>
<text class="ts" x="68" y="829" text-anchor="middle">Overview</text>
<text class="ts" x="68" y="843" text-anchor="middle">01-overview</text></g>

<g class="c-gray"><rect x="126" y="812" width="96" height="36" rx="6" stroke-width="0.5"/>
<text class="ts" x="174" y="829" text-anchor="middle">Node Metrics</text>
<text class="ts" x="174" y="843" text-anchor="middle">02-node</text></g>

<g class="c-gray"><rect x="232" y="812" width="96" height="36" rx="6" stroke-width="0.5"/>
<text class="ts" x="280" y="829" text-anchor="middle">Fn Metrics</text>
<text class="ts" x="280" y="843" text-anchor="middle">03-function</text></g>

<g class="c-gray"><rect x="338" y="812" width="96" height="36" rx="6" stroke-width="0.5"/>
<text class="ts" x="386" y="829" text-anchor="middle">Repo Compare</text>
<text class="ts" x="386" y="843" text-anchor="middle">04-repo</text></g>

<g class="c-gray"><rect x="444" y="812" width="96" height="36" rx="6" stroke-width="0.5"/>
<text class="ts" x="492" y="829" text-anchor="middle">LLM Metrics</text>
<text class="ts" x="492" y="843" text-anchor="middle">05-llm</text></g>

<g class="c-gray"><rect x="550" y="812" width="96" height="36" rx="6" stroke-width="0.5"/>
<text class="ts" x="598" y="829" text-anchor="middle">Efficiency</text>
<text class="ts" x="598" y="843" text-anchor="middle">06-efficiency</text></g>

<!-- Grafana → dashboards arrows -->
<line x1="340" y1="782" x2="340" y2="812" stroke="#BA7517" stroke-width="1" marker-end="url(#arrow-amber)" fill="none"/>

<!-- ===== METRICS BEING COLLECTED ===== -->
<text class="ts" x="16" y="876" font-weight="500" fill="#888780">KEY PROMETHEUS METRICS TRACKED</text>

<g class="c-blue"><rect x="20" y="882" width="148" height="44" rx="6" stroke-width="0.5"/>
<text class="ts" x="94" y="899" text-anchor="middle">node_execution_time</text>
<text class="ts" x="94" y="913" text-anchor="middle">_seconds  [Histogram]</text></g>

<g class="c-blue"><rect x="178" y="882" width="148" height="44" rx="6" stroke-width="0.5"/>
<text class="ts" x="252" y="899" text-anchor="middle">llm_api_call_duration</text>
<text class="ts" x="252" y="913" text-anchor="middle">_seconds  [Histogram]</text></g>

<g class="c-blue"><rect x="336" y="882" width="148" height="44" rx="6" stroke-width="0.5"/>
<text class="ts" x="410" y="899" text-anchor="middle">node_memory_peak</text>
<text class="ts" x="410" y="913" text-anchor="middle">_bytes  [Gauge]</text></g>

<g class="c-blue"><rect x="494" y="882" width="148" height="44" rx="6" stroke-width="0.5"/>
<text class="ts" x="568" y="899" text-anchor="middle">llm_cache_hits_total</text>
<text class="ts" x="568" y="913" text-anchor="middle">+ api_calls  [Counter]</text></g>

<!-- psutil/tracemalloc label -->
<text class="ts" x="340" y="950" text-anchor="middle" fill="#888780">Collected via: psutil (RSS, CPU%) + tracemalloc (heap peak) → MetricsCollector → Prometheus Registry</text>
<text class="ts" x="340" y="966" text-anchor="middle" fill="#888780">performance_tracker.py wraps every function/node with @track_performance decorator</text>

</svg>